<svg width="256" height="256" viewBox="0 0 256 256" fill="none" xmlns="http://www.w3.org/2000/svg">
<path d="M256 128C256 198.692 198.692 256 128 256C57.3075 256 0 198.692 0 128C0 57.3075 57.3075 0 128 0C198.692 0 256 57.3075 256 128Z" fill="#F7B239"/>
<path fill-rule="evenodd" clip-rule="evenodd" d="M128 247C193.722 247 247 193.722 247 128C247 62.2781 193.722 9 128 9C62.2781 9 9 62.2781 9 128C9 193.722 62.2781 247 128 247ZM128 256C198.692 256 256 198.692 256 128C256 57.3076 198.692 0 128 0C57.3076 0 0 57.3076 0 128C0 198.692 57.3076 256 128 256Z" fill="black"/>
<path d="M66.0068 195.5C24.4068 162.7 11.5069 79.71 48.0068 40C30 43 0.507328 86.4936 2.50733 128.494C5.00733 180.994 36.5073 228.994 77.0073 241.494C109.407 251.494 163.007 270.994 218.007 209.994C155.007 241.494 107.607 228.3 66.0068 195.5Z" fill="#E09B2D"/>
<path fill-rule="evenodd" clip-rule="evenodd" d="M128 247C193.722 247 247 193.722 247 128C247 62.2781 193.722 9 128 9C62.2781 9 9 62.2781 9 128C9 193.722 62.2781 247 128 247ZM128 256C198.692 256 256 198.692 256 128C256 57.3075 198.692 0 128 0C57.3075 0 0 57.3075 0 128C0 198.692 57.3075 256 128 256Z" fill="#333333"/>
<path d="M63 168.5C63 175.404 57.4036 181 50.5 181C43.5964 181 38 175.404 38 168.5C38 161.596 43.5964 156 50.5 156C57.4036 156 63 161.596 63 168.5Z" fill="#F95428"/>
<path d="M219 168.5C219 175.404 213.404 181 206.5 181C199.596 181 194 175.404 194 168.5C194 161.596 199.596 156 206.5 156C213.404 156 219 161.596 219 168.5Z" fill="#F95428"/>
<path d="M102 131C102 145.912 89.6878 158 74.5 158C59.3122 158 47 145.912 47 131C47 116.088 59.3122 104 74.5 104C89.6878 104 102 116.088 102 131Z" fill="#333333"/>
<path d="M209 131C209 145.912 196.688 158 181.5 158C166.312 158 154 145.912 154 131C154 116.088 166.312 104 181.5 104C196.688 104 209 116.088 209 131Z" fill="#333333"/>
<path d="M198 122.5C198 127.747 193.747 132 188.5 132C183.253 132 179 127.747 179 122.5C179 117.253 183.253 113 188.5 113C193.747 113 198 117.253 198 122.5Z" fill="white"/>
<path d="M178 145C178 147.761 175.761 150 173 150C170.239 150 168 147.761 168 145C168 142.239 170.239 140 173 140C175.761 140 178 142.239 178 145Z" fill="white"/>
<path d="M205 136.5C205 138.985 202.985 141 200.5 141C198.015 141 196 138.985 196 136.5C196 134.015 198.015 132 200.5 132C202.985 132 205 134.015 205 136.5Z" fill="white"/>
<path d="M91 122.5C91 127.747 86.7467 132 81.5 132C76.2533 132 72 127.747 72 122.5C72 117.253 76.2533 113 81.5 113C86.7467 113 91 117.253 91 122.5Z" fill="white"/>
<path d="M68 146C68 148.761 65.7614 151 63 151C60.2386 151 58 148.761 58 146C58 143.239 60.2386 141 63 141C65.7614 141 68 143.239 68 146Z" fill="white"/>
<path d="M95 136.5C95 138.985 92.9853 141 90.5 141C88.0147 141 86 138.985 86 136.5C86 134.015 88.0147 132 90.5 132C92.9853 132 95 134.015 95 136.5Z" fill="white"/>
<path fill-rule="evenodd" clip-rule="evenodd" d="M139.573 20.2379C139.994 18.0692 142.093 16.6522 144.262 17.073C178.679 23.7509 201.959 39.7644 216.969 60.1263C231.919 80.4063 238.456 104.707 239.991 127.734C240.138 129.938 238.47 131.844 236.266 131.991C234.062 132.138 232.156 130.47 232.009 128.266C230.544 106.292 224.33 83.5932 210.53 64.8733C196.79 46.2352 175.321 31.2486 142.738 24.9265C140.569 24.5057 139.152 22.4066 139.573 20.2379Z" fill="white"/>
<path d="M133 20C133 22.7614 130.761 25 128 25C125.239 25 123 22.7614 123 20C123 17.2386 125.239 15 128 15C130.761 15 133 17.2386 133 20Z" fill="white"/>
<path fill-rule="evenodd" clip-rule="evenodd" d="M127.5 159.5C129.709 159.5 131.5 161.291 131.5 163.5C131.5 169.922 129.352 174.956 125.655 178.291C122.017 181.573 117.296 182.828 112.819 182.555C104.054 182.022 94.6746 175.329 95.0015 163.886C95.0645 161.678 96.9058 159.939 99.114 160.002C101.322 160.065 103.061 161.906 102.998 164.114C102.825 170.171 107.696 174.228 113.305 174.57C116.016 174.735 118.514 173.959 120.297 172.35C122.022 170.794 123.5 168.078 123.5 163.5C123.5 161.291 125.291 159.5 127.5 159.5Z" fill="#333333"/>
<path fill-rule="evenodd" clip-rule="evenodd" d="M128 159C125.791 159 124 160.791 124 163C124 169.422 126.148 174.456 129.845 177.791C133.483 181.073 138.204 182.328 142.681 182.055C151.446 181.522 160.825 174.829 160.499 163.386C160.435 161.178 158.594 159.439 156.386 159.502C154.178 159.565 152.439 161.406 152.502 163.614C152.675 169.671 147.804 173.728 142.195 174.07C139.484 174.235 136.986 173.459 135.203 171.85C133.478 170.294 132 167.578 132 163C132 160.791 130.209 159 128 159Z" fill="#333333"/>
</svg>
